# xmcd
# 
# Track frame offsets:
#     182
#     10732
#     23387
#     35032
#     45232
#     56230
#     68100
#     83250
#     95267
#     108467
#     121807
# 
# Disc length: 1782
# 
# Revision: 4
# Processed by: cddbd v1.5.2PL0 Copyright (c) Steve Scherf et al.
# Submitted via: fre:ac v1.0.31
# 
DISCID=7706f40b
DTITLE=Nana Mouskouri - Singt die schönsten deutschen Weihnachtslieder
DYEAR=1976
DGENRE=Weihnachtsmusik
TTITLE0=O, Tannenbaum
TTITLE1=Ich steh' an deiner Krippen hier
TTITLE2=Still, still, still
TTITLE3=O, freudenreicher Tag, o, gnadenreicher Tag
TTITLE4=Schlaf wohl, du Himmelsknabe, du
TTITLE5=Leise rieselt der Schnee
TTITLE6=Es ist ein Ros' entsprungen
TTITLE7=Joseph, lieber Joseph mein
TTITLE8=Stille Nacht, heilige Nacht
TTITLE9=Süßer die Glocken nie klingen
TTITLE10=O, du fröhliche
EXTD=
EXTT0=
EXTT1=
EXTT2=
EXTT3=
EXTT4=
EXTT5=
EXTT6=
EXTT7=
EXTT8=
EXTT9=
EXTT10=
PLAYORDER=
